<svg aria-hidden="true" style="position: absolute; width: 0; height: 0; overflow: hidden;" version="1.1" xmlns="http://www.w3.org/2000/svg" xmlns:xlink="http://www.w3.org/1999/xlink">
<defs>
<symbol id="icon-arrow_to_down" viewBox="0 0 32 32">
<path fill="none" stroke="#000" stroke-width="4.8" d="M28.8 8l-12.8 12.8-12.8-12.8"></path>
</symbol>
<symbol id="icon-arrow_to_left" viewBox="0 0 32 32">
<path fill="none" stroke="#000" stroke-width="4.8" d="M24 28.8l-12.8-12.8 12.8-12.8"></path>
</symbol>
<symbol id="icon-arrow_to_right" viewBox="0 0 32 32">
<path fill="none" stroke="#000" stroke-width="4.8" d="M8 3.2l12.8 12.8-12.8 12.8"></path>
</symbol>
<symbol id="icon-arrow_to_up" viewBox="0 0 32 32">
<path fill="none" stroke="#000" stroke-width="4.8" d="M3.2 24l12.8-12.8 12.8 12.8"></path>
</symbol>
<symbol id="icon-barometer" viewBox="0 0 32 32">
<path d="M18.489 4.121c0.207-0.391 0.324-0.837 0.324-1.307-0.002-1.553-1.26-2.811-2.812-2.813h-0c-1.552 0.002-2.81 1.26-2.812 2.812v0c0 0.472 0.117 0.917 0.324 1.307-6.565 1.179-11.561 6.932-11.561 13.83 0 7.747 6.302 14.050 14.050 14.050s14.050-6.303 14.050-14.050c0-6.898-4.997-12.652-11.561-13.829zM16 1.874c0.493 0.032 0.88 0.439 0.88 0.937s-0.388 0.905-0.878 0.937l-0.003 0c-0.493-0.032-0.88-0.439-0.88-0.937s0.388-0.905 0.878-0.937l0.003-0zM16 30.124c-6.714 0-12.176-5.462-12.176-12.175s5.462-12.176 12.176-12.176 12.176 5.462 12.176 12.176c0 6.713-5.462 12.175-12.176 12.175z"></path>
<path d="M23.333 10.69l-0.040-0.045-0.048-0.042c-1.859-1.841-4.417-2.978-7.24-2.978-0.002 0-0.003 0-0.005 0h0c-0.002 0-0.004 0-0.006 0-2.834 0-5.401 1.146-7.262 2.999l0-0-0.025 0.022-0.018 0.020c-1.862 1.863-3.014 4.435-3.014 7.278 0 0.002 0 0.005 0 0.007v-0c0 0.517 0.421 0.937 0.938 0.937h1.062c0.518 0 0.937-0.42 0.937-0.937s-0.42-0.937-0.937-0.937v0h-0.073c0.19-1.665 0.839-3.15 1.817-4.359l-0.012 0.016 0.052 0.052c0.169 0.17 0.404 0.276 0.663 0.276s0.494-0.105 0.663-0.276l0-0c0.366-0.366 0.366-0.96 0-1.326l-0.050-0.050c1.19-0.959 2.67-1.605 4.289-1.79l0.039-0.004v0.073c0 0.518 0.42 0.937 0.937 0.937s0.937-0.42 0.937-0.937v0-0.073c1.625 0.18 3.112 0.823 4.327 1.795l-0.049 0.049c-0.17 0.17-0.275 0.404-0.275 0.663 0 0.518 0.42 0.937 0.937 0.937 0.259 0 0.493-0.105 0.663-0.275l0.051-0.051c0.963 1.189 1.612 2.669 1.8 4.29l0.004 0.039h-0.083c-0.518 0-0.937 0.42-0.937 0.937s0.42 0.937 0.937 0.937v0h1.076c0.517 0 0.937-0.421 0.936-0.938-0.003-2.828-1.146-5.389-2.994-7.247l0 0z"></path>
<path d="M20.251 13.698c-0.366-0.366-0.96-0.366-1.326 0l-3.915 3.916c-0.355-0.174-0.772-0.276-1.213-0.276-0.069 0-0.137 0.002-0.204 0.007l0.009-0.001c-0.489 0.035-0.872 0.441-0.872 0.935 0 0.518 0.42 0.938 0.938 0.938 0.023 0 0.046-0.001 0.068-0.002l-0.003 0c0.020-0.002 0.043-0.002 0.067-0.002 0.517 0 0.936 0.419 0.936 0.936 0 0.020-0.001 0.039-0.002 0.058l0-0.003c-0.001 0.016-0.002 0.035-0.002 0.054 0 0.518 0.42 0.938 0.938 0.938 0.499 0 0.907-0.389 0.936-0.881l0-0.003c0.003-0.048 0.005-0.104 0.005-0.16 0-0.441-0.102-0.859-0.283-1.23l0.007 0.017 3.915-3.915c0.366-0.366 0.366-0.96 0-1.326zM21.375 24.688h-10.751c-0.518 0-0.937 0.42-0.937 0.937s0.42 0.937 0.937 0.937v0h10.752c0.518 0 0.937-0.42 0.937-0.937s-0.42-0.937-0.937-0.937v0z"></path>
</symbol>
<symbol id="icon-clouds-and-sun" viewBox="0 0 32 32">
<path fill="#fdbf00" style="fill: var(--color2, #fdbf00)" d="M19.218 21.205c-3.847 0-6.994-3.111-7.031-6.967-0.036-3.877 3.090-7.060 6.967-7.095l0.066-0.001c3.847 0 6.994 3.111 7.030 6.967 0.036 3.877-3.090 7.060-6.967 7.095l-0.065 0.001z"></path>
<path fill="#ff8856" style="fill: var(--color3, #ff8856)" d="M19.22 7.142h-0.002v14.063h0.065c3.877-0.037 7.003-3.218 6.967-7.096-0.036-3.856-3.183-6.967-7.031-6.967z"></path>
<path fill="#fdbf00" style="fill: var(--color2, #fdbf00)" d="M19.246 5.806c-0.513 0-0.933-0.414-0.937-0.929l-0.023-2.536c-0-0.003-0-0.006-0-0.009 0-0.515 0.415-0.932 0.929-0.937h0.010c0.513 0 0.933 0.414 0.937 0.929l0.023 2.538c0.005 0.518-0.411 0.942-0.929 0.945h-0.009z"></path>
<path fill="#ff8856" style="fill: var(--color3, #ff8856)" d="M28.525 15.026c-0.001 0-0.003 0-0.005 0-0.518 0-0.938-0.42-0.938-0.938 0-0.516 0.417-0.935 0.933-0.938h0l2.547-0.024c0.001 0 0.003 0 0.005 0 0.518 0 0.938 0.42 0.938 0.938 0 0.516-0.417 0.935-0.933 0.938h-0l-2.548 0.024zM25.851 8.471c-0 0-0.001 0-0.001 0-0.518 0-0.937-0.42-0.937-0.937 0-0.256 0.103-0.488 0.269-0.657l1.778-1.81c0.17-0.172 0.406-0.279 0.667-0.279 0.518 0 0.937 0.42 0.937 0.937 0 0.255-0.102 0.486-0.267 0.655l0-0-1.778 1.811c-0.183 0.187-0.426 0.281-0.668 0.281z"></path>
<path fill="#fdbf00" style="fill: var(--color2, #fdbf00)" d="M12.691 8.592c-0.237 0-0.474-0.090-0.656-0.269l-1.81-1.777c-0.173-0.17-0.281-0.407-0.281-0.669 0-0.518 0.42-0.937 0.937-0.937 0.256 0 0.487 0.102 0.657 0.268l-0-0 1.81 1.778c0.174 0.17 0.281 0.407 0.281 0.669 0 0.518-0.42 0.937-0.937 0.937-0 0-0 0-0.001 0h0z"></path>
<path fill="#ff8856" style="fill: var(--color3, #ff8856)" d="M22.823 6.486c0 0-0 0-0 0-0.518 0-0.937-0.42-0.937-0.937 0-0.127 0.025-0.248 0.071-0.358l-0.002 0.006 0.953-2.352c0.143-0.346 0.478-0.585 0.869-0.585 0.518 0 0.937 0.42 0.937 0.937 0 0.127-0.025 0.248-0.071 0.358l0.002-0.006-0.951 2.352c-0.148 0.366-0.499 0.586-0.869 0.586zM30.309 19.557c-0.117 0-0.236-0.022-0.351-0.069l-2.352-0.953c-0.346-0.143-0.586-0.478-0.586-0.869 0-0.518 0.42-0.938 0.938-0.938 0.127 0 0.248 0.025 0.358 0.071l-0.006-0.002 2.352 0.953c0.347 0.142 0.588 0.478 0.588 0.869 0 0.518-0.42 0.937-0.937 0.937-0.001 0-0.002 0-0.003 0h0z"></path>
<path fill="#fdbf00" style="fill: var(--color2, #fdbf00)" d="M10.706 11.62c-0.118 0-0.238-0.022-0.352-0.069l-2.352-0.953c-0.346-0.143-0.586-0.478-0.586-0.869 0-0.518 0.42-0.938 0.938-0.938 0.127 0 0.248 0.025 0.358 0.071l-0.006-0.002 2.352 0.953c0.347 0.142 0.588 0.478 0.588 0.87 0 0.518-0.42 0.937-0.937 0.937-0.001 0-0.002 0-0.003 0h0z"></path>
<path fill="#ff8856" style="fill: var(--color3, #ff8856)" d="M27.901 11.482c-0.001 0-0.002 0-0.003 0-0.518 0-0.937-0.42-0.937-0.937 0-0.387 0.234-0.718 0.568-0.862l0.006-0.002 2.336-0.99c0.108-0.047 0.234-0.074 0.366-0.074 0.518 0 0.938 0.42 0.938 0.938 0 0.386-0.233 0.717-0.566 0.861l-0.006 0.002-2.337 0.99c-0.119 0.050-0.243 0.074-0.366 0.074z"></path>
<path fill="#fdbf00" style="fill: var(--color2, #fdbf00)" d="M15.702 6.544c-0.366 0-0.712-0.215-0.863-0.572l-0.99-2.337c-0.047-0.108-0.074-0.234-0.074-0.366 0-0.518 0.42-0.937 0.937-0.937 0.386 0 0.717 0.233 0.861 0.566l0.002 0.006 0.99 2.337c0.047 0.108 0.075 0.234 0.075 0.367 0 0.518-0.42 0.937-0.937 0.937-0 0-0 0-0.001 0h0z"></path>
<path fill="#fff4f4" style="fill: var(--color4, #fff4f4)" d="M13.937 30.607c-1.163-0.001-2.231-0.408-3.069-1.087l0.009 0.007c-0.453-0.369-0.833-0.806-1.129-1.301l-0.012-0.022c-0.64 0.4-1.389 0.623-2.16 0.623-1.83-0.005-3.376-1.214-3.889-2.876l-0.008-0.029c-2.073-0.204-3.68-1.938-3.68-4.047v-0c0.003-2.113 1.614-3.848 3.675-4.047l0.017-0.001c0.223-0.707 0.611-1.308 1.12-1.78l0.003-0.002c0.721-0.671 1.691-1.083 2.757-1.083 0.002 0 0.003 0 0.005 0h-0c0.764 0 1.506 0.219 2.143 0.613 0.307-0.524 0.688-0.967 1.134-1.333l0.009-0.007c0.832-0.679 1.905-1.091 3.075-1.092h0c1.117 0 2.209 0.389 3.075 1.092 0.461 0.375 0.848 0.832 1.143 1.34 0.609-0.383 1.349-0.611 2.143-0.613h0c1.028 0 2.009 0.384 2.763 1.082 0.53 0.491 0.914 1.105 1.123 1.783 2.074 0.203 3.682 1.938 3.682 4.049 0 2.107-1.602 3.839-3.654 4.046l-0.017 0.001c-0.521 1.69-2.067 2.899-3.896 2.904h-0.001c-0.801-0.001-1.547-0.233-2.176-0.632l0.017 0.010c-0.308 0.517-0.688 0.954-1.132 1.316l-0.009 0.007c-0.829 0.672-1.897 1.079-3.060 1.080h-0z"></path>
<path fill="#f6efea" style="fill: var(--color5, #f6efea)" d="M26.5 18.827c-0.622-0.551-1.42-0.915-2.299-1l-0.017-0.001c-0.223-0.707-0.611-1.308-1.12-1.78l-0.003-0.002c-0.721-0.671-1.691-1.083-2.757-1.083-0.002 0-0.004 0-0.006 0h0c-0.763 0-1.506 0.219-2.143 0.613-0.307-0.524-0.688-0.967-1.134-1.333l-0.009-0.007c-0.832-0.679-1.905-1.090-3.075-1.091h-0v17.464c1.111 0 2.198-0.384 3.060-1.080 0.453-0.369 0.833-0.806 1.129-1.301l0.012-0.022c0.64 0.4 1.389 0.623 2.16 0.623 1.83-0.005 3.376-1.214 3.889-2.876l0.008-0.029c2.072-0.205 3.678-1.939 3.678-4.048 0-1.211-0.529-2.298-1.369-3.043l-0.004-0.004z"></path>
<path fill="#ff8856" style="fill: var(--color3, #ff8856)" d="M20.16 2.322c-0.005-0.514-0.422-0.929-0.937-0.929 0 0-0 0-0 0h-0.005v4.411l0.027 0.001h0.009c0.514-0.005 0.929-0.422 0.929-0.937 0-0.003-0-0.006-0-0.010v0l-0.024-2.537z"></path>
</symbol>
<symbol id="icon-cloudy" viewBox="0 0 32 32">
<path fill="#eee1dc" style="fill: var(--color6, #eee1dc)" d="M26.889 20.96c-3.319 0-11.015-2.423-14.429-5.445-1.259-1.114-1.897-2.262-1.897-3.41 0.003-2.555 2.075-4.625 4.63-4.625 0.455 0 0.895 0.066 1.31 0.188l-0.033-0.008c0.644-1.828 2.356-3.114 4.368-3.114 0.002 0 0.004 0 0.006 0h-0c1.67 0 3.199 0.909 4.014 2.325 0.116-0.010 0.252-0.016 0.388-0.016 2.557 0 4.63 2.073 4.63 4.63 0 0.312-0.031 0.616-0.090 0.911l0.005-0.030c1.33 0.831 2.203 2.285 2.209 3.943v0.001c0 1.215-0.489 2.35-1.377 3.194-0.81 0.77-1.923 1.276-3.134 1.424-0.17 0.020-0.367 0.032-0.566 0.032-0.012 0-0.024-0-0.036-0h0.002z"></path>
<path fill="#e0d2cd" style="fill: var(--color7, #e0d2cd)" d="M29.79 12.366c0.054-0.265 0.085-0.569 0.085-0.881 0-2.557-2.073-4.63-4.63-4.63-0.137 0-0.272 0.006-0.406 0.018l0.017-0.001c-0.743-1.272-2.042-2.15-3.555-2.302l-0.020-0.002v15.323c2.203 0.673 4.263 1.070 5.606 1.070 0.22 0 0.421-0.011 0.601-0.032 1.211-0.148 2.324-0.655 3.134-1.424 0.849-0.799 1.377-1.93 1.377-3.185 0-0.003 0-0.006 0-0.009v0c-0.006-1.659-0.879-3.114-2.19-3.933l-0.020-0.011z"></path>
<path fill="#fff4f4" style="fill: var(--color4, #fff4f4)" d="M13.321 27.454c-1.119-0.001-2.146-0.392-2.953-1.046l0.009 0.007c-0.424-0.345-0.781-0.753-1.062-1.213l-0.012-0.021c-0.581 0.361-1.286 0.575-2.041 0.576h-0c-1.753-0.005-3.235-1.156-3.738-2.742l-0.008-0.028c-1.983-0.211-3.515-1.874-3.516-3.896v-0c0.003-2.025 1.54-3.69 3.51-3.896l0.017-0.001c0.203-0.64 0.57-1.222 1.073-1.689 0.695-0.646 1.629-1.042 2.656-1.042 0.002 0 0.003 0 0.005 0h-0c0.721 0 1.422 0.201 2.026 0.567 0.292-0.487 0.65-0.901 1.069-1.244l0.008-0.007c0.8-0.653 1.832-1.049 2.957-1.050h0c1.074 0 2.124 0.373 2.956 1.050 0.432 0.351 0.795 0.777 1.077 1.25 0.578-0.357 1.279-0.568 2.029-0.568 1.028 0 1.964 0.397 2.661 1.047l-0.002-0.002c0.503 0.466 0.869 1.048 1.072 1.69 1.987 0.207 3.522 1.873 3.522 3.898 0 2.021-1.53 3.684-3.494 3.895l-0.017 0.002c-0.511 1.614-1.993 2.765-3.745 2.77h-0.001c-0.755-0.001-1.46-0.216-2.058-0.587l0.017 0.010c-0.292 0.48-0.65 0.888-1.066 1.227l-0.009 0.007c-0.797 0.646-1.824 1.038-2.942 1.039h-0z"></path>
<path fill="#f6efea" style="fill: var(--color5, #f6efea)" d="M25.317 16.155c-0.592-0.524-1.35-0.874-2.186-0.96l-0.017-0.001c-0.216-0.669-0.586-1.238-1.070-1.686l-0.003-0.002c-0.695-0.646-1.629-1.042-2.656-1.042-0.002 0-0.005 0-0.007 0h0c-0.72 0-1.421 0.201-2.025 0.567-0.292-0.487-0.65-0.901-1.069-1.244l-0.008-0.007c-0.8-0.653-1.832-1.049-2.957-1.050h-0v16.725c1.119-0.001 2.146-0.392 2.953-1.046l-0.009 0.007c0.429-0.346 0.792-0.765 1.073-1.233 0.608 0.371 1.315 0.576 2.042 0.576 1.753-0.005 3.235-1.156 3.738-2.742l0.008-0.028c1.983-0.212 3.514-1.876 3.514-3.898 0-1.167-0.51-2.214-1.319-2.932l-0.004-0.004z"></path>
</symbol>
<symbol id="icon-cross" viewBox="0 0 32 32">
<path stroke="rgba(255, 255, 255, 0.5)" stroke-width="4" d="M2.667 2.667l26.667 26.667M2.667 29.333l26.667-26.667"></path>
</symbol>
<symbol id="icon-humidity" viewBox="0 0 32 32">
<path d="M28.62 9.399c-0.596-1.021-1.234-1.987-1.796-2.719-0.827-1.079-1.317-1.461-1.868-1.461-0.523 0-0.948 0.366-1.426 0.916-0.407 0.479-0.805 1.009-1.173 1.561l-0.039 0.063c-0.561 0.823-1.145 1.792-1.676 2.794l-0.083 0.171c-0.632-1.222-1.118-2.087-1.622-2.939l0.162 0.295c-1.203-2.059-2.486-4.001-3.612-5.47-1.848-2.408-2.543-2.61-3.049-2.61s-1.2 0.201-3.048 2.61c-1.126 1.469-2.409 3.411-3.612 5.47-1.446 2.474-4.808 8.639-4.808 12.451 0.001 6.324 5.146 11.469 11.469 11.469 5.934 0 10.83-4.529 11.41-10.312 0.331 0.064 0.712 0.1 1.101 0.1 3.356 0 6.077-2.718 6.082-6.073v-0c0.001-1.905-1.509-4.775-2.41-6.316zM12.437 30.126c-5.29 0-9.594-4.304-9.594-9.595 0-2.234 1.6-6.358 4.279-11.034 2.392-4.174 4.524-6.857 5.315-7.519 0.792 0.662 2.924 3.346 5.315 7.519 2.68 4.676 4.279 8.8 4.279 11.034 0 5.29-4.304 9.594-9.594 9.594zM24.956 19.915c-0 0-0 0-0 0-0.387 0-0.763-0.052-1.119-0.15l0.030 0.007c-0.207-2.066-1.186-4.634-2.256-6.924 1.042-2.329 2.588-4.623 3.344-5.498 0.477 0.55 1.322 1.709 2.262 3.37 1.214 2.147 1.938 4.014 1.938 4.995-0.003 2.318-1.881 4.197-4.199 4.2h-0z"></path>
<path d="M15.012 16.073c-0.135-0.079-0.296-0.126-0.469-0.126-0.345 0-0.647 0.187-0.809 0.464l-0.002 0.004-4.21 7.292c-0.079 0.135-0.126 0.296-0.126 0.469 0 0.518 0.42 0.938 0.938 0.938 0.345 0 0.647-0.186 0.809-0.464l0.002-0.004 4.21-7.293c0.079-0.134 0.126-0.296 0.126-0.469 0-0.345-0.186-0.646-0.464-0.809l-0.004-0.002zM10.094 17.938c0-0.517-0.421-0.938-0.937-0.938s-0.938 0.421-0.938 0.937 0.421 0.938 0.938 0.938c0.516 0 0.937-0.421 0.937-0.938zM15.406 22.312c-0.516 0-0.937 0.421-0.937 0.938 0 0.516 0.421 0.937 0.938 0.937 0.516 0 0.937-0.421 0.937-0.937s-0.421-0.938-0.937-0.938z"></path>
</symbol>
<symbol id="icon-location" viewBox="0 0 32 32">
<path fill="none" stroke="#aeb3b9" style="stroke: var(--color8, #aeb3b9)" stroke-linejoin="miter" stroke-linecap="butt" stroke-miterlimit="4" stroke-width="2.9091" d="M27.636 16c0 6.427-5.21 11.636-11.636 11.636s-11.636-5.21-11.636-11.636c0-6.427 5.21-11.636 11.636-11.636s11.636 5.21 11.636 11.636z"></path>
<path fill="#aeb3b9" style="fill: var(--color8, #aeb3b9)" d="M14.545 0h2.909v5.818h-2.909zM14.545 26.182h2.909v5.818h-2.909zM5.818 14.545v2.909h-5.818v-2.909zM32 14.545v2.909h-5.818v-2.909z"></path>
</symbol>
<symbol id="icon-snow" viewBox="0 0 32 32">
<path fill="#7dd5f4" style="fill: var(--color9, #7dd5f4)" d="M19.531 28.438c0-0.518-0.42-0.938-0.937-0.938h-0.33l0.233-0.233c0.17-0.17 0.275-0.404 0.275-0.663 0-0.518-0.42-0.937-0.937-0.937-0.259 0-0.493 0.105-0.663 0.275v0l-0.234 0.233v-0.361c0-0.518-0.42-0.937-0.937-0.937s-0.937 0.42-0.937 0.937v0 0.361l-0.256-0.256c-0.17-0.17-0.404-0.275-0.663-0.275-0.518 0-0.937 0.42-0.937 0.937 0 0.259 0.105 0.493 0.275 0.663l0.256 0.256h-0.331c-0.518 0-0.938 0.42-0.938 0.938s0.42 0.938 0.938 0.938h0.33l-0.233 0.234c-0.17 0.17-0.275 0.404-0.275 0.663 0 0.518 0.42 0.937 0.937 0.937 0.259 0 0.493-0.105 0.663-0.275v0l0.233-0.234v0.362c0 0.518 0.42 0.938 0.938 0.938s0.938-0.42 0.938-0.938v0-0.362l0.256 0.256c0.169 0.17 0.404 0.275 0.663 0.275s0.493-0.105 0.663-0.275l0-0c0.366-0.366 0.366-0.96 0-1.326l-0.256-0.256h0.331c0.517 0 0.937-0.421 0.937-0.937zM7.063 22.501c0-0.518-0.421-0.938-0.938-0.938h-0.33l0.233-0.234c0.17-0.17 0.275-0.404 0.275-0.663 0-0.518-0.42-0.937-0.937-0.937-0.259 0-0.493 0.105-0.663 0.275v0l-0.233 0.234v-0.362c0-0.518-0.42-0.938-0.938-0.938s-0.938 0.42-0.938 0.938v0 0.362l-0.256-0.256c-0.17-0.17-0.404-0.275-0.663-0.275-0.518 0-0.937 0.42-0.937 0.937 0 0.259 0.105 0.493 0.275 0.663l0.256 0.256h-0.331c-0.518 0-0.937 0.42-0.937 0.937s0.42 0.937 0.937 0.937v0h0.331l-0.234 0.234c-0.17 0.17-0.275 0.404-0.275 0.663 0 0.518 0.42 0.937 0.937 0.937 0.259 0 0.493-0.105 0.663-0.275v0l0.234-0.233v0.361c0 0.518 0.42 0.937 0.937 0.937s0.937-0.42 0.937-0.937v0-0.361l0.256 0.256c0.169 0.17 0.404 0.276 0.663 0.276s0.494-0.105 0.663-0.276l0-0c0.366-0.366 0.366-0.96 0-1.326l-0.256-0.256h0.332c0.518 0 0.938-0.421 0.938-0.938z"></path>
<path fill="#4793ff" style="fill: var(--color10, #4793ff)" d="M32 22.501c0-0.518-0.421-0.938-0.937-0.938h-0.331l0.234-0.234c0.17-0.17 0.275-0.404 0.275-0.663 0-0.518-0.42-0.937-0.937-0.937-0.259 0-0.493 0.105-0.663 0.275l-0.234 0.234v-0.362c0-0.518-0.42-0.937-0.937-0.937s-0.937 0.42-0.937 0.937v0 0.362l-0.256-0.256c-0.17-0.17-0.404-0.275-0.663-0.275-0.518 0-0.937 0.42-0.937 0.937 0 0.259 0.105 0.493 0.275 0.663l0.256 0.256h-0.332c-0.518 0-0.937 0.42-0.937 0.937s0.42 0.937 0.937 0.937v0h0.33l-0.233 0.234c-0.17 0.17-0.275 0.404-0.275 0.663 0 0.518 0.42 0.937 0.937 0.937 0.259 0 0.493-0.105 0.663-0.275l0.233-0.233v0.361c0 0.518 0.42 0.938 0.938 0.938s0.938-0.42 0.938-0.938v0-0.361l0.256 0.256c0.169 0.17 0.404 0.275 0.663 0.275s0.493-0.105 0.663-0.275l0-0c0.366-0.366 0.366-0.96 0-1.326l-0.256-0.256h0.331c0.517 0 0.937-0.421 0.937-0.938z"></path>
<path fill="#fff4f4" style="fill: var(--color4, #fff4f4)" d="M10.781 23.376c0.517 0 0.938-0.422 0.938-0.938s-0.421-0.937-0.938-0.937-0.937 0.421-0.937 0.937 0.421 0.938 0.937 0.938zM21.219 23.376c0.517 0 0.938-0.422 0.938-0.938s-0.422-0.937-0.938-0.937-0.937 0.421-0.937 0.937 0.421 0.938 0.937 0.938zM5.687 32c0.518 0 0.938-0.421 0.938-0.937s-0.421-0.938-0.937-0.938-0.938 0.421-0.938 0.938c0 0.516 0.421 0.937 0.938 0.937zM26.313 32c0.516 0 0.937-0.421 0.937-0.937s-0.421-0.938-0.938-0.938c-0.516 0-0.937 0.421-0.937 0.938 0 0.516 0.421 0.937 0.937 0.937z"></path>
<path fill="#fff4f4" style="fill: var(--color4, #fff4f4)" d="M16 19.938c-1.312-0.001-2.517-0.461-3.463-1.227l0.010 0.008c-0.551-0.448-1.007-0.988-1.35-1.6l-0.014-0.028c-0.716 0.489-1.6 0.782-2.552 0.784h-0c-2.089-0.006-3.848-1.409-4.393-3.324l-0.008-0.032c-2.373-0.179-4.23-2.148-4.23-4.55v-0c0.003-2.406 1.865-4.376 4.227-4.55l0.015-0.001c0.242-0.832 0.69-1.541 1.285-2.092l0.003-0.003c0.809-0.753 1.898-1.215 3.094-1.215 0.002 0 0.004 0 0.005 0h-0c0.91 0 1.792 0.276 2.535 0.772 0.356-0.648 0.813-1.195 1.357-1.64l0.010-0.008c0.938-0.766 2.149-1.23 3.468-1.232h0c1.26 0 2.492 0.437 3.468 1.232 0.561 0.456 1.025 1.018 1.367 1.648 0.712-0.482 1.589-0.77 2.534-0.772h0c1.154 0 2.255 0.432 3.099 1.215 0.599 0.554 1.047 1.263 1.281 2.063l0.008 0.032c2.377 0.174 4.239 2.145 4.239 4.551 0 2.402-1.856 4.37-4.212 4.549l-0.015 0.001c-0.553 1.947-2.312 3.35-4.4 3.355h-0.001c-0.953-0.001-1.837-0.294-2.569-0.793l0.016 0.010c-0.357 0.64-0.813 1.18-1.354 1.619l-0.010 0.008c-0.936 0.758-2.14 1.218-3.452 1.219h-0z"></path>
<path fill="#f6efea" style="fill: var(--color5, #f6efea)" d="M30.458 6.549c-0.722-0.64-1.656-1.055-2.685-1.13l-0.015-0.001c-0.242-0.832-0.69-1.541-1.286-2.093l-0.003-0.003c-0.809-0.753-1.898-1.215-3.094-1.215-0.002 0-0.004 0-0.005 0h0c-0.909 0-1.792 0.276-2.534 0.772-0.356-0.648-0.814-1.195-1.357-1.64l-0.010-0.008c-0.938-0.766-2.149-1.23-3.468-1.232h-0v19.938c1.312-0.001 2.517-0.461 3.463-1.227l-0.010 0.008c0.551-0.448 1.007-0.988 1.35-1.6l0.014-0.028c0.746 0.503 1.636 0.784 2.553 0.784 2.082 0 3.867-1.417 4.4-3.356 2.372-0.18 4.229-2.148 4.229-4.551 0-1.359-0.594-2.579-1.536-3.415l-0.005-0.004z"></path>
<path fill="#4793ff" style="fill: var(--color10, #4793ff)" d="M19.531 28.438c0-0.518-0.42-0.938-0.937-0.938h-0.33l0.233-0.233c0.17-0.17 0.275-0.404 0.275-0.663 0-0.518-0.42-0.937-0.937-0.937-0.259 0-0.493 0.105-0.663 0.275v0l-0.234 0.233v-0.361c0-0.518-0.42-0.938-0.937-0.938v7.125c0.518 0 0.937-0.42 0.937-0.937v-0.362l0.256 0.256c0.169 0.17 0.404 0.276 0.663 0.276s0.494-0.105 0.663-0.276l0-0c0.366-0.366 0.366-0.96 0-1.326l-0.256-0.256h0.331c0.517 0 0.937-0.421 0.937-0.937z"></path>
</symbol>
<symbol id="icon-Star" viewBox="0 0 32 32">
<path fill="none" stroke="#7e8691" style="stroke: var(--color11, #7e8691)" stroke-linejoin="miter" stroke-linecap="butt" stroke-miterlimit="4" stroke-width="1.4545" d="M16 3.808l3.063 9.43h9.916l-8.022 5.827 0.164 0.503 2.9 8.927-8.022-5.827-0.428 0.31-7.593 5.517 3.063-9.43-0.428-0.31-7.593-5.519h9.914l0.163-0.503 2.9-8.925z"></path>
</symbol>
<symbol id="icon-sun" viewBox="0 0 32 32">
<path fill="#fdbf00" style="fill: var(--color2, #fdbf00)" d="M16 24.688c-4.791 0-8.688-3.898-8.688-8.688s3.898-8.688 8.688-8.688c4.791 0 8.688 3.898 8.688 8.688s-3.898 8.688-8.688 8.688zM16 5.103c-0.518 0-0.937-0.42-0.937-0.937v-3.227c0-0.518 0.42-0.937 0.937-0.937s0.937 0.42 0.937 0.937v0 3.227c0 0.518-0.42 0.937-0.937 0.937z"></path>
<path fill="#ff8856" style="fill: var(--color3, #ff8856)" d="M31.063 16.937h-3.227c-0.518 0-0.937-0.42-0.937-0.937s0.42-0.937 0.937-0.937v0h3.227c0.518 0 0.937 0.42 0.937 0.937s-0.42 0.937-0.937 0.937v0z"></path>
<path fill="#fdbf00" style="fill: var(--color2, #fdbf00)" d="M16 32c-0.518 0-0.937-0.42-0.937-0.937v-3.227c0-0.518 0.42-0.937 0.937-0.937s0.937 0.42 0.937 0.937v0 3.227c0 0.517-0.42 0.937-0.937 0.937zM4.165 16.937h-3.227c-0.518 0-0.937-0.42-0.937-0.937s0.42-0.937 0.937-0.937v0h3.227c0.518 0 0.937 0.42 0.937 0.937s-0.42 0.937-0.937 0.937v0z"></path>
<path fill="#ff8856" style="fill: var(--color3, #ff8856)" d="M24.368 8.569c-0 0-0 0-0 0-0.518 0-0.937-0.42-0.937-0.937 0-0.259 0.105-0.493 0.275-0.663l2.282-2.282c0.17-0.17 0.404-0.275 0.663-0.275 0.518 0 0.937 0.42 0.937 0.937 0 0.259-0.105 0.493-0.275 0.663v0l-2.282 2.282c-0.183 0.183-0.422 0.274-0.663 0.274zM26.651 27.589c-0.24 0-0.48-0.091-0.664-0.274l-2.282-2.283c-0.17-0.17-0.275-0.404-0.275-0.663 0-0.518 0.42-0.937 0.937-0.937 0.259 0 0.493 0.105 0.663 0.275l2.282 2.282c0.17 0.17 0.275 0.404 0.275 0.663 0 0.518-0.42 0.937-0.937 0.937-0 0-0 0-0 0h0z"></path>
<path fill="#fdbf00" style="fill: var(--color2, #fdbf00)" d="M5.349 27.589c-0 0-0 0-0 0-0.518 0-0.937-0.42-0.937-0.937 0-0.259 0.105-0.493 0.275-0.663l2.283-2.283c0.17-0.17 0.404-0.275 0.663-0.275 0.518 0 0.937 0.42 0.937 0.937 0 0.259-0.105 0.493-0.275 0.663l-2.282 2.282c-0.183 0.183-0.423 0.274-0.663 0.274zM7.632 8.569c-0.24 0-0.48-0.091-0.663-0.274l-2.282-2.282c-0.17-0.17-0.275-0.404-0.275-0.663 0-0.518 0.42-0.937 0.937-0.937 0.259 0 0.493 0.105 0.663 0.275l2.282 2.282c0.17 0.17 0.275 0.404 0.275 0.663 0 0.518-0.42 0.937-0.937 0.937-0 0-0 0-0 0h0z"></path>
<path fill="#ff8856" style="fill: var(--color3, #ff8856)" d="M20.541 6.010c-0 0-0 0-0 0-0.518 0-0.937-0.42-0.937-0.937 0-0.13 0.027-0.254 0.075-0.367l-0.002 0.006 1.238-2.981c0.15-0.331 0.477-0.557 0.857-0.557 0.518 0 0.938 0.42 0.938 0.938 0 0.122-0.023 0.238-0.066 0.345l0.002-0.006-1.238 2.981c-0.145 0.342-0.478 0.578-0.866 0.578-0 0-0 0-0.001 0h0zM29.909 22.718c-0.12 0-0.242-0.023-0.359-0.072l-2.981-1.238c-0.328-0.151-0.551-0.477-0.551-0.855 0-0.518 0.42-0.938 0.938-0.938 0.12 0 0.234 0.022 0.339 0.063l-0.006-0.002 2.981 1.239c0.343 0.145 0.579 0.478 0.579 0.866 0 0.518-0.42 0.937-0.937 0.937-0.001 0-0.001 0-0.002 0h0z"></path>
<path fill="#fdbf00" style="fill: var(--color2, #fdbf00)" d="M10.219 30.847c-0 0-0.001 0-0.001 0-0.518 0-0.937-0.42-0.937-0.937 0-0.13 0.027-0.254 0.075-0.367l-0.002 0.006 1.239-2.981c0.145-0.342 0.478-0.578 0.866-0.578 0.518 0 0.938 0.42 0.938 0.938 0 0.13-0.026 0.254-0.074 0.366l0.002-0.006-1.238 2.981c-0.145 0.342-0.478 0.578-0.866 0.578-0 0-0 0-0.001 0h0zM5.071 12.396c-0.119 0-0.241-0.023-0.359-0.072l-2.981-1.238c-0.342-0.145-0.578-0.478-0.578-0.866 0-0.518 0.42-0.938 0.938-0.938 0.13 0 0.253 0.026 0.366 0.074l-0.006-0.002 2.981 1.239c0.341 0.146 0.575 0.478 0.575 0.865 0 0.517-0.418 0.936-0.935 0.938h-0z"></path>
<path fill="#ff8856" style="fill: var(--color3, #ff8856)" d="M26.939 12.421c-0.518-0.001-0.937-0.42-0.937-0.938 0-0.389 0.236-0.722 0.573-0.864l0.006-0.002 2.983-1.232c0.098-0.038 0.211-0.060 0.33-0.060 0.518 0 0.938 0.42 0.938 0.938 0 0.378-0.224 0.705-0.547 0.853l-2.989 1.234c-0.117 0.048-0.238 0.071-0.357 0.071zM21.748 30.861c-0.368 0-0.718-0.219-0.867-0.581l-1.232-2.983c-0.045-0.106-0.071-0.229-0.071-0.358 0-0.518 0.42-0.937 0.937-0.937 0.389 0 0.722 0.237 0.864 0.573l0.002 0.006 1.232 2.983c0.045 0.106 0.071 0.229 0.071 0.358 0 0.518-0.42 0.937-0.937 0.937-0 0-0.001 0-0.001 0h0z"></path>
<path fill="#fdbf00" style="fill: var(--color2, #fdbf00)" d="M2.077 22.685c-0.517-0.002-0.935-0.421-0.935-0.938 0-0.388 0.235-0.721 0.571-0.863l0.006-0.002 2.983-1.232c0.106-0.045 0.229-0.071 0.357-0.071 0.518 0 0.937 0.42 0.937 0.937 0 0.389-0.237 0.722-0.574 0.864l-0.006 0.002-2.983 1.232c-0.117 0.048-0.238 0.071-0.357 0.071zM11.483 5.999c-0.368 0-0.717-0.218-0.866-0.58l-1.232-2.984c-0.045-0.106-0.071-0.229-0.071-0.357 0-0.518 0.42-0.938 0.938-0.938 0.389 0 0.722 0.237 0.864 0.574l0.002 0.006 1.232 2.983c0.045 0.106 0.071 0.229 0.071 0.358 0 0.518-0.42 0.937-0.937 0.937v0z"></path>
<path fill="#ff8856" style="fill: var(--color3, #ff8856)" d="M16 0v5.103c0.517 0 0.937-0.42 0.937-0.937v-3.227c0-0.519-0.42-0.938-0.937-0.938zM16 7.312v17.375c4.791 0 8.688-3.898 8.688-8.688s-3.898-8.688-8.688-8.688zM16 26.897v5.103c0.517 0 0.937-0.42 0.937-0.937v-3.227c0-0.518-0.42-0.938-0.937-0.938z"></path>
</symbol>
<symbol id="icon-sunrise" viewBox="0 0 32 32">
<path d="M16 5.103c0.517 0 0.937-0.42 0.937-0.937v-3.227c0-0.518-0.42-0.937-0.937-0.937s-0.937 0.42-0.937 0.937v0 3.227c0 0.518 0.42 0.937 0.937 0.937zM31.063 15.063h-3.227c-0.518 0-0.937 0.42-0.937 0.937s0.42 0.937 0.937 0.937v0h3.227c0.518 0 0.937-0.42 0.937-0.937s-0.42-0.937-0.937-0.937v0zM5.103 16c0-0.518-0.42-0.937-0.937-0.937h-3.227c-0.518 0-0.937 0.42-0.937 0.937s0.42 0.937 0.937 0.937v0h3.227c0.518 0 0.937-0.42 0.937-0.937zM24.368 8.569c0.24 0 0.48-0.091 0.663-0.274l2.282-2.283c0.17-0.17 0.275-0.404 0.275-0.663 0-0.518-0.42-0.937-0.937-0.937-0.259 0-0.493 0.105-0.663 0.275v0l-2.282 2.283c-0.17 0.17-0.275 0.404-0.275 0.663 0 0.518 0.42 0.937 0.937 0.937 0 0 0 0 0 0h-0zM25.031 23.706c-0.167-0.155-0.392-0.251-0.638-0.251-0.518 0-0.938 0.42-0.938 0.938 0 0.247 0.095 0.471 0.251 0.639l-0.001-0.001 2.282 2.282c0.169 0.17 0.404 0.276 0.663 0.276s0.494-0.105 0.663-0.276l0-0c0.366-0.366 0.366-0.96 0-1.326l-2.282-2.282zM6.969 23.706l-2.282 2.282c-0.17 0.17-0.275 0.404-0.275 0.663 0 0.518 0.42 0.937 0.937 0.937 0.259 0 0.493-0.105 0.663-0.275v0l2.282-2.282c0.17-0.17 0.275-0.404 0.275-0.663 0-0.518-0.42-0.937-0.937-0.937-0.259 0-0.493 0.105-0.663 0.275v0zM6.969 8.294c0.169 0.17 0.404 0.276 0.663 0.276s0.494-0.105 0.663-0.276l0-0c0.366-0.366 0.366-0.96 0-1.326l-2.282-2.283c-0.17-0.17-0.404-0.275-0.663-0.275-0.518 0-0.937 0.42-0.937 0.937 0 0.259 0.105 0.493 0.275 0.663l2.282 2.283zM20.182 5.937c0.107 0.046 0.231 0.073 0.361 0.073 0.388 0 0.721-0.236 0.862-0.573l0.002-0.006 1.239-2.981c0.049-0.11 0.078-0.239 0.078-0.374 0-0.518-0.42-0.937-0.937-0.937-0.394 0-0.73 0.243-0.869 0.587l-0.002 0.006-1.239 2.981c-0.198 0.477 0.027 1.026 0.506 1.225zM30.269 20.914l-2.981-1.238c-0.106-0.045-0.23-0.072-0.36-0.072-0.518 0-0.937 0.42-0.937 0.937 0 0.388 0.235 0.721 0.571 0.863l0.006 0.002 2.981 1.239c0.106 0.045 0.23 0.072 0.36 0.072 0.518 0 0.937-0.42 0.937-0.937 0-0.388-0.235-0.721-0.571-0.863l-0.006-0.002zM11.818 26.063c-0.106-0.045-0.229-0.071-0.359-0.071-0.388 0-0.721 0.236-0.864 0.572l-0.002 0.006-1.239 2.981c-0.045 0.106-0.072 0.23-0.072 0.36 0 0.518 0.42 0.937 0.937 0.937 0.388 0 0.721-0.235 0.863-0.571l0.002-0.006 1.239-2.981c0.045-0.106 0.072-0.23 0.072-0.36 0-0.388-0.236-0.721-0.571-0.863l-0.006-0.002zM1.731 11.085l2.981 1.239c0.107 0.046 0.231 0.072 0.361 0.072 0.388 0 0.72-0.236 0.862-0.572l0.002-0.006c0.045-0.106 0.072-0.23 0.072-0.36 0-0.388-0.236-0.72-0.571-0.863l-0.006-0.002-2.981-1.24c-0.099-0.039-0.213-0.061-0.333-0.061-0.518 0-0.938 0.42-0.938 0.938 0 0.378 0.223 0.704 0.545 0.852l0.006 0.002zM26.073 11.841c0.144 0.343 0.478 0.58 0.867 0.58 0.129 0 0.252-0.026 0.364-0.073l-0.006 0.002 2.982-1.232c0.343-0.144 0.58-0.478 0.58-0.867 0-0.518-0.42-0.938-0.938-0.938-0.129 0-0.252 0.026-0.364 0.073l0.006-0.002-2.983 1.232c-0.344 0.144-0.581 0.478-0.581 0.867 0 0.129 0.026 0.253 0.074 0.365l-0.002-0.006zM21.382 26.582c-0.144-0.343-0.478-0.58-0.866-0.58-0.518 0-0.937 0.42-0.937 0.937 0 0.129 0.026 0.252 0.073 0.364l-0.002-0.006 1.232 2.983c0.137 0.359 0.479 0.608 0.878 0.608 0.518 0 0.938-0.42 0.938-0.938 0-0.14-0.030-0.272-0.085-0.391l0.002 0.006-1.232-2.983zM5.927 20.159c-0.144-0.343-0.478-0.58-0.867-0.58-0.129 0-0.252 0.026-0.364 0.073l0.006-0.002-2.982 1.232c-0.343 0.144-0.58 0.478-0.58 0.867 0 0.518 0.42 0.938 0.938 0.938 0.129 0 0.252-0.026 0.364-0.073l-0.006 0.002 2.983-1.232c0.479-0.197 0.707-0.745 0.509-1.223zM10.618 5.419c0.136 0.362 0.479 0.614 0.88 0.614 0.518 0 0.938-0.42 0.938-0.938 0-0.142-0.032-0.277-0.088-0.398l0.002 0.006-1.232-2.983c-0.144-0.343-0.478-0.58-0.867-0.58-0.518 0-0.938 0.42-0.938 0.938 0 0.129 0.026 0.252 0.073 0.364l-0.002-0.006 1.232 2.984z"></path>
<path d="M16.937 24.636c4.352-0.469 7.75-4.163 7.75-8.636 0-4.791-3.897-8.688-8.688-8.688s-8.688 3.898-8.688 8.688c0 4.474 3.399 8.167 7.75 8.636v6.427c0 0.518 0.42 0.937 0.937 0.937s0.937-0.42 0.937-0.937v0-6.427zM9.189 16c0-3.757 3.056-6.812 6.812-6.812s6.812 3.056 6.812 6.812c0 3.438-2.56 6.29-5.875 6.747v-3.578l0.212 0.212c0.167 0.155 0.392 0.251 0.638 0.251 0.518 0 0.938-0.42 0.938-0.938 0-0.247-0.095-0.471-0.251-0.639l0.001 0.001-1.817-1.818c-0.17-0.17-0.404-0.275-0.663-0.275-0.254 0-0.485 0.101-0.654 0.266l0-0-1.874 1.821c-0.175 0.171-0.284 0.409-0.284 0.672 0 0.518 0.42 0.937 0.937 0.937 0.254 0 0.484-0.101 0.653-0.265l-0 0 0.29-0.281v3.632c-3.315-0.457-5.875-3.31-5.875-6.747z"></path>
</symbol>
<symbol id="icon-sunset" viewBox="0 0 32 32">
<path d="M16 5.103c0.517 0 0.937-0.42 0.937-0.937v-3.227c0-0.518-0.42-0.937-0.937-0.937s-0.937 0.42-0.937 0.937v0 3.227c0 0.518 0.42 0.937 0.937 0.937zM31.063 15.063h-3.227c-0.518 0-0.937 0.42-0.937 0.937s0.42 0.937 0.937 0.937v0h3.227c0.518 0 0.937-0.42 0.937-0.937s-0.42-0.937-0.937-0.937v0zM5.103 16c0-0.518-0.42-0.937-0.937-0.937h-3.227c-0.518 0-0.937 0.42-0.937 0.937s0.42 0.937 0.937 0.937v0h3.227c0.518 0 0.937-0.42 0.937-0.937zM24.368 8.569c0.24 0 0.48-0.091 0.663-0.274l2.282-2.282c0.17-0.17 0.275-0.404 0.275-0.663 0-0.518-0.42-0.937-0.937-0.937-0.259 0-0.493 0.105-0.663 0.275v0l-2.282 2.282c-0.17 0.17-0.275 0.404-0.275 0.663 0 0.518 0.42 0.937 0.937 0.937 0 0 0 0 0 0h-0zM25.031 23.706c-0.167-0.155-0.392-0.251-0.638-0.251-0.518 0-0.938 0.42-0.938 0.938 0 0.247 0.095 0.471 0.251 0.639l-0.001-0.001 2.282 2.282c0.169 0.17 0.404 0.276 0.663 0.276s0.494-0.105 0.663-0.276l0-0c0.366-0.366 0.366-0.96 0-1.326l-2.282-2.282zM6.969 23.706l-2.282 2.282c-0.17 0.17-0.275 0.404-0.275 0.663 0 0.518 0.42 0.937 0.937 0.937 0.259 0 0.493-0.105 0.663-0.275v0l2.282-2.282c0.17-0.17 0.275-0.404 0.275-0.663 0-0.518-0.42-0.937-0.937-0.937-0.259 0-0.493 0.105-0.663 0.275v0zM6.969 8.294c0.169 0.17 0.404 0.276 0.663 0.276s0.494-0.105 0.663-0.276l0-0c0.366-0.366 0.366-0.96 0-1.326l-2.282-2.283c-0.17-0.17-0.404-0.275-0.663-0.275-0.518 0-0.937 0.42-0.937 0.937 0 0.259 0.105 0.493 0.275 0.663l2.282 2.283zM20.182 5.937c0.107 0.046 0.231 0.073 0.361 0.073 0.388 0 0.721-0.236 0.862-0.573l0.002-0.006 1.239-2.981c0.049-0.11 0.078-0.239 0.078-0.374 0-0.518-0.42-0.937-0.937-0.937-0.394 0-0.73 0.243-0.869 0.587l-0.002 0.006-1.239 2.981c-0.198 0.477 0.027 1.026 0.506 1.225zM30.269 20.915l-2.981-1.239c-0.106-0.045-0.23-0.072-0.36-0.072-0.518 0-0.937 0.42-0.937 0.937 0 0.388 0.235 0.721 0.571 0.863l0.006 0.002 2.981 1.239c0.107 0.046 0.231 0.073 0.361 0.073 0.388 0 0.72-0.236 0.862-0.572l0.002-0.006c0.045-0.106 0.072-0.23 0.072-0.359 0-0.388-0.235-0.721-0.571-0.864l-0.006-0.002zM11.818 26.063c-0.106-0.045-0.23-0.072-0.359-0.072-0.388 0-0.721 0.236-0.863 0.572l-0.002 0.006-1.239 2.981c-0.045 0.106-0.072 0.23-0.072 0.359 0 0.518 0.42 0.937 0.937 0.937 0.388 0 0.721-0.236 0.864-0.572l0.002-0.006 1.238-2.981c0.045-0.106 0.072-0.23 0.072-0.359 0-0.388-0.235-0.721-0.571-0.864l-0.006-0.002zM1.731 11.085l2.981 1.239c0.106 0.046 0.23 0.072 0.36 0.072 0.388 0 0.72-0.236 0.863-0.572l0.002-0.006c0.045-0.106 0.072-0.23 0.072-0.36 0-0.388-0.236-0.72-0.571-0.863l-0.006-0.002-2.981-1.24c-0.099-0.039-0.213-0.061-0.333-0.061-0.518 0-0.938 0.42-0.938 0.938 0 0.378 0.223 0.704 0.545 0.852l0.006 0.002zM26.073 11.841c0.144 0.343 0.478 0.58 0.867 0.58 0.129 0 0.252-0.026 0.364-0.073l-0.006 0.002 2.982-1.232c0.329-0.151 0.553-0.477 0.553-0.855 0-0.518-0.42-0.938-0.938-0.938-0.118 0-0.232 0.022-0.336 0.062l0.006-0.002-2.983 1.232c-0.344 0.144-0.581 0.478-0.581 0.867 0 0.129 0.026 0.253 0.074 0.365l-0.002-0.006zM21.382 26.582c-0.144-0.343-0.478-0.58-0.866-0.58-0.518 0-0.937 0.42-0.937 0.937 0 0.129 0.026 0.252 0.073 0.364l-0.002-0.006 1.232 2.983c0.153 0.323 0.476 0.542 0.851 0.542 0.518 0 0.938-0.42 0.938-0.938 0-0.115-0.021-0.224-0.058-0.326l0.002 0.006-1.232-2.983zM5.927 20.158c-0.145-0.343-0.478-0.579-0.867-0.579-0.129 0-0.252 0.026-0.364 0.073l0.006-0.002-2.982 1.232c-0.343 0.144-0.58 0.478-0.58 0.866 0 0.518 0.42 0.937 0.937 0.937 0.129 0 0.252-0.026 0.364-0.073l-0.006 0.002 2.983-1.232c0.479-0.198 0.707-0.745 0.509-1.224zM10.618 5.419c0.136 0.362 0.479 0.614 0.88 0.614 0.518 0 0.938-0.42 0.938-0.938 0-0.142-0.032-0.277-0.088-0.398l0.002 0.006-1.232-2.983c-0.15-0.331-0.477-0.558-0.857-0.558-0.518 0-0.938 0.42-0.938 0.938 0 0.121 0.023 0.236 0.064 0.342l-0.002-0.006 1.232 2.983z"></path>
<path d="M17.149 28.582l-0.212 0.212v-4.157c4.352-0.47 7.75-4.164 7.75-8.637 0-4.791-3.898-8.688-8.688-8.688s-8.688 3.898-8.688 8.688c0 4.474 3.399 8.167 7.75 8.637v4.212l-0.29-0.281c-0.165-0.148-0.384-0.238-0.624-0.238-0.518 0-0.938 0.42-0.938 0.938 0 0.25 0.097 0.476 0.256 0.644l-0-0 1.875 1.822c0.168 0.165 0.399 0.267 0.654 0.267 0.259 0 0.494-0.105 0.663-0.276l1.817-1.818c0.17-0.17 0.275-0.404 0.275-0.663 0-0.518-0.42-0.937-0.937-0.937-0.259 0-0.493 0.105-0.663 0.275v0zM9.189 16c0-3.757 3.056-6.812 6.812-6.812s6.812 3.056 6.812 6.812c0 3.438-2.56 6.289-5.875 6.747v-2.225c0-0.518-0.42-0.937-0.937-0.937s-0.937 0.42-0.937 0.937v0 2.225c-3.315-0.458-5.875-3.31-5.875-6.747z"></path>
</symbol>
<symbol id="icon-weather" viewBox="0 0 32 32">
<path fill="#fdbf00" style="fill: var(--color2, #fdbf00)" d="M16 25.375c-5.169 0-9.375-4.206-9.375-9.375s4.206-9.375 9.375-9.375c0.517 0 0.937 0.421 0.937 0.937v16.875c0 0.518-0.42 0.938-0.937 0.938z"></path>
<path fill="#7dd5f4" style="fill: var(--color9, #7dd5f4)" d="M31.063 15.063h-1.458l0.714-1.238c0.079-0.134 0.125-0.296 0.125-0.469 0-0.518-0.42-0.937-0.937-0.937-0.345 0-0.647 0.187-0.809 0.464l-0.002 0.004-1.255 2.175h-9.177l6.49-6.49 2.426 0.649c0.073 0.021 0.157 0.032 0.244 0.032 0.431 0 0.794-0.291 0.903-0.688l0.002-0.007c0.020-0.073 0.032-0.157 0.032-0.243 0-0.431-0.292-0.795-0.688-0.904l-0.007-0.002-1.381-0.369 0.942-0.942c0.17-0.17 0.275-0.404 0.275-0.663 0-0.518-0.42-0.937-0.937-0.937-0.259 0-0.493 0.105-0.663 0.275v0l-0.942 0.942-0.369-1.381c-0.12-0.389-0.477-0.666-0.898-0.666-0.518 0-0.938 0.42-0.938 0.938 0 0.076 0.009 0.149 0.026 0.22l-0.001-0.006 0.649 2.426-6.489 6.49v-9.178l2.175-1.255c0.282-0.165 0.469-0.467 0.469-0.812 0-0.518-0.42-0.938-0.938-0.938-0.173 0-0.334 0.047-0.473 0.128l0.004-0.002-1.237 0.714v-1.456c0-0.518-0.42-0.937-0.937-0.937s-0.937 0.42-0.937 0.937v0 30.126c0 0.518 0.42 0.937 0.937 0.937s0.937-0.42 0.937-0.937v0-1.458l1.238 0.714c0.134 0.079 0.296 0.125 0.469 0.125 0.518 0 0.937-0.42 0.937-0.937 0-0.345-0.187-0.647-0.464-0.809l-0.004-0.002-2.175-1.255v-9.177l6.49 6.49-0.65 2.426c-0.023 0.077-0.036 0.166-0.036 0.258 0 0.518 0.42 0.937 0.937 0.937 0.437 0 0.804-0.299 0.908-0.704l0.001-0.006 0.37-1.38 0.942 0.942c0.169 0.17 0.404 0.276 0.663 0.276s0.494-0.105 0.663-0.276l0-0c0.367-0.366 0.367-0.959 0-1.326l-0.942-0.942 1.381-0.369c0.403-0.111 0.695-0.474 0.695-0.906 0-0.518-0.42-0.938-0.938-0.938-0.086 0-0.17 0.012-0.249 0.034l0.007-0.002-2.426 0.649-6.49-6.489h9.178l1.255 2.175c0.165 0.282 0.467 0.469 0.812 0.469 0.518 0 0.938-0.42 0.938-0.938 0-0.173-0.047-0.334-0.128-0.473l0.002 0.004-0.714-1.237h1.457c0.518 0 0.937-0.42 0.937-0.937s-0.42-0.937-0.937-0.937v0z"></path>
<path fill="#fdbf00" style="fill: var(--color2, #fdbf00)" d="M3.941 16.937h-3.003c-0.518 0-0.937-0.42-0.937-0.937s0.42-0.937 0.937-0.937v0h3.003c0.518 0 0.937 0.42 0.937 0.937s-0.42 0.937-0.937 0.937v0zM7.472 8.411c-0.24 0-0.479-0.091-0.663-0.274l-2.123-2.124c-0.17-0.17-0.275-0.404-0.275-0.663 0-0.518 0.42-0.937 0.937-0.937 0.259 0 0.493 0.105 0.663 0.275l2.124 2.123c0.17 0.17 0.275 0.404 0.275 0.663 0 0.518-0.42 0.937-0.937 0.937-0 0-0.001 0-0.001 0h0zM5.349 27.589c-0 0-0 0-0 0-0.518 0-0.937-0.42-0.937-0.937 0-0.259 0.105-0.493 0.275-0.663l2.126-2.126c0.167-0.155 0.392-0.251 0.638-0.251 0.518 0 0.938 0.42 0.938 0.938 0 0.247-0.095 0.471-0.251 0.639l0.001-0.001-2.124 2.124c-0.183 0.183-0.423 0.274-0.663 0.274zM11.481 5.757c-0.37 0-0.722-0.221-0.869-0.585l-1.127-2.786c-0.043-0.104-0.069-0.225-0.069-0.352 0-0.518 0.42-0.938 0.938-0.938 0.391 0 0.726 0.239 0.867 0.579l0.002 0.006 1.126 2.785c0.043 0.104 0.069 0.225 0.069 0.352 0 0.518-0.42 0.937-0.937 0.937-0 0-0 0-0 0v0zM2.036 22.583c-0.517-0.001-0.936-0.421-0.936-0.938 0-0.39 0.238-0.725 0.578-0.866l0.006-0.002 2.784-1.125c0.108-0.047 0.234-0.074 0.366-0.074 0.518 0 0.937 0.42 0.937 0.937 0 0.396-0.246 0.735-0.594 0.872l-0.006 0.002-2.784 1.126c-0.104 0.043-0.224 0.069-0.351 0.069-0 0-0 0-0 0v0zM10.288 30.875c-0.517-0-0.937-0.42-0.937-0.937 0-0.128 0.026-0.25 0.072-0.362l-0.002 0.006 1.139-2.779c0.152-0.324 0.476-0.544 0.851-0.544 0.518 0 0.938 0.42 0.938 0.938 0 0.113-0.020 0.222-0.057 0.323l0.002-0.006-1.138 2.779c-0.144 0.345-0.478 0.582-0.868 0.582-0 0-0 0-0.001 0h0zM4.841 12.365c-0.119 0-0.239-0.023-0.355-0.070l-2.779-1.138c-0.344-0.144-0.582-0.478-0.582-0.868 0-0.518 0.42-0.938 0.938-0.938 0.128 0 0.251 0.026 0.362 0.072l-0.006-0.002 2.779 1.138c0.346 0.143 0.585 0.478 0.585 0.869 0 0.518-0.42 0.937-0.937 0.937-0.002 0-0.003 0-0.005 0h0z"></path>
<path fill="#4793ff" style="fill: var(--color10, #4793ff)" d="M31.063 15.063h-1.458l0.714-1.238c0.079-0.134 0.125-0.296 0.125-0.469 0-0.518-0.42-0.937-0.937-0.937-0.345 0-0.647 0.187-0.809 0.464l-0.002 0.004-1.255 2.175h-9.177l6.49-6.49 2.426 0.649c0.073 0.021 0.157 0.032 0.244 0.032 0.431 0 0.794-0.291 0.903-0.688l0.002-0.007c0.020-0.073 0.032-0.157 0.032-0.243 0-0.431-0.292-0.795-0.688-0.904l-0.007-0.002-1.381-0.369 0.942-0.942c0.17-0.17 0.275-0.404 0.275-0.663 0-0.518-0.42-0.937-0.937-0.937-0.259 0-0.493 0.105-0.663 0.275v0l-0.942 0.942-0.369-1.381c-0.12-0.389-0.477-0.666-0.898-0.666-0.518 0-0.938 0.42-0.938 0.938 0 0.076 0.009 0.149 0.026 0.22l-0.001-0.006 0.649 2.426-6.489 6.49v-9.178l2.175-1.255c0.282-0.165 0.469-0.467 0.469-0.812 0-0.518-0.42-0.938-0.938-0.938-0.173 0-0.334 0.047-0.473 0.128l0.004-0.002-1.237 0.714v-1.456c0-0.517-0.42-0.937-0.937-0.937v32c0.518 0 0.937-0.421 0.937-0.938v-1.456l1.238 0.714c0.134 0.079 0.296 0.125 0.469 0.125 0.518 0 0.937-0.42 0.937-0.937 0-0.345-0.187-0.647-0.464-0.809l-0.004-0.002-2.175-1.255v-9.178l6.49 6.49-0.65 2.426c-0.023 0.077-0.036 0.166-0.036 0.258 0 0.518 0.42 0.937 0.937 0.937 0.437 0 0.804-0.299 0.908-0.704l0.001-0.006 0.37-1.38 0.942 0.942c0.169 0.17 0.404 0.276 0.663 0.276s0.494-0.105 0.663-0.276l0-0c0.367-0.366 0.367-0.959 0-1.326l-0.942-0.942 1.381-0.369c0.403-0.111 0.695-0.474 0.695-0.906 0-0.518-0.42-0.938-0.938-0.938-0.086 0-0.17 0.012-0.249 0.034l0.007-0.002-2.426 0.649-6.49-6.489h9.178l1.255 2.175c0.165 0.282 0.467 0.469 0.812 0.469 0.518 0 0.938-0.42 0.938-0.938 0-0.173-0.047-0.334-0.128-0.473l0.002 0.004-0.714-1.237h1.457c0.518 0 0.937-0.42 0.937-0.937s-0.42-0.937-0.937-0.937v0z"></path>
</symbol>
<symbol id="icon-wind" viewBox="0 0 32 32">
<path d="M25.316 2.643c-1.59 0.002-3.049 0.557-4.198 1.482l0.013-0.010c-0.215 0.173-0.351 0.436-0.351 0.731 0 0.518 0.42 0.938 0.938 0.938 0.223 0 0.428-0.078 0.589-0.208l-0.002 0.001c0.817-0.659 1.867-1.058 3.010-1.060h0c2.651 0 4.809 2.158 4.809 4.809s-2.158 4.809-4.809 4.809h-17.627c-0.518 0-0.938 0.42-0.938 0.938s0.42 0.938 0.938 0.938h17.627c3.686 0 6.684-2.999 6.684-6.683 0-3.686-2.999-6.685-6.684-6.685z"></path>
<path d="M5.892 12.268h10.014c0.518 0 0.937-0.42 0.937-0.937s-0.42-0.937-0.937-0.937v0h-10.014c-0.518 0-0.937 0.42-0.937 0.937s0.42 0.937 0.937 0.937v0zM15.643 17.893h-14.706c-0.518 0-0.938 0.42-0.938 0.938s0.42 0.938 0.938 0.938h14.706c2.129 0.003 3.854 1.728 3.856 3.856v0c-0.003 2.129-1.728 3.854-3.856 3.856h-0c-0.875 0-1.733-0.302-2.414-0.849-0.159-0.129-0.364-0.207-0.587-0.207-0.518 0-0.938 0.42-0.938 0.938 0 0.295 0.136 0.558 0.349 0.73l0.002 0.001c0.974 0.785 2.226 1.26 3.588 1.262h0c3.164-0.004 5.729-2.568 5.732-5.732v-0c-0.004-3.164-2.568-5.727-5.731-5.731h-0zM0.937 12.268h1.266c0.518 0 0.937-0.42 0.937-0.937s-0.42-0.937-0.937-0.937v0h-1.266c-0.518 0-0.937 0.42-0.937 0.937s0.42 0.937 0.937 0.937v0z"></path>
<path d="M12.25 22.563c0-0.518-0.42-0.938-0.937-0.938h-5.625c-0.518 0-0.938 0.42-0.938 0.938s0.42 0.938 0.938 0.938h5.625c0.518 0 0.937-0.42 0.937-0.937z"></path>
</symbol>
<symbol id="rain" viewBox="0 0 512 512">
<path d="M423.883 213.572c-2.568 0-5.105.136-7.605.395-.663-60.201-49.663-108.802-110.021-108.802-46.48 0-86.229 28.819-102.354 69.563a93.998 93.998 0 00-22.614-2.75c-51.827 0-93.841 42.014-93.841 93.841 0 51.55 41.569 93.387 93.016 93.83v.011h243.42c40.339 0 73.043-32.704 73.043-73.045-.001-40.339-32.705-73.043-73.044-73.043z" fill="#EEE1DC" stroke="none"/>
<path d="M403.883 193.572c-2.568 0-5.105.136-7.605.395-.663-60.201-49.663-108.802-110.021-108.802-46.48 0-86.229 28.819-102.354 69.563a93.998 93.998 0 00-22.614-2.75c-51.827 0-93.841 42.014-93.841 93.841 0 51.55 41.569 93.387 93.016 93.83v.011h243.42c40.339 0 73.043-32.704 73.043-73.045-.001-40.339-32.705-73.043-73.044-73.043z" fill="none" stroke="#E0D2CD" stroke-linejoin="round" stroke-miterlimit="10" stroke-width="10"/>
<path d="M45.651 221.12a100.262 100.262 0 015.824-27.39c0-.132-.007-.263-.007-.395 0-46.29 37.659-83.949 83.949-83.949 6.833 0 13.641.828 20.233 2.461a5 5 0 005.852-3.014c15.092-38.137 51.349-62.778 92.368-62.778 16.426 0 32.218 3.973 46.32 11.432a117.281 117.281 0 0129.459 9.109c-20.46-19.717-47.262-30.541-75.779-30.541-22.348 0-43.837 6.7-62.146 19.375-16.7 11.563-29.725 27.326-37.868 45.772a94.448 94.448 0 00-18.439-1.816c-51.804 0-93.949 42.146-93.949 93.949a93.955 93.955 0 004.143 27.664c.014.041.028.081.04.121z" fill="#E0D2CD"  stroke="none"/>
<path d="M190.663 390.096s5.569 25.267 3.24 32.289c-2.329 7.024-9.845 10.853-16.784 8.55-6.94-2.302-10.679-9.861-8.349-16.885 2.329-7.023 21.893-23.954 21.893-23.954zM278.585 380.312s5.569 25.267 3.24 32.289c-2.329 7.024-9.845 10.853-16.784 8.55-6.94-2.302-10.679-9.861-8.349-16.885 2.329-7.023 21.893-23.954 21.893-23.954zM384.919 375.871s5.569 25.267 3.24 32.289c-2.329 7.024-9.845 10.853-16.784 8.55-6.94-2.302-10.679-9.861-8.349-16.885 2.328-7.022 21.893-23.954 21.893-23.954zM321.083 431.604s5.569 25.267 3.24 32.289c-2.329 7.024-9.845 10.853-16.784 8.55-6.94-2.302-10.679-9.861-8.349-16.885 2.329-7.022 21.893-23.954 21.893-23.954z" fill="#4793FF"  stroke="none"/>
</symbol>
</defs>
</svg>
